<?xml version="1.0" encoding="UTF-8" standalone="no"?>
<svg
   svg:contrastcolor="ffffff"
   svg:template="Contrast"
   svg:presentation="2.5"
   svg:layouttype="undefined"
   svg:specialfontid="undefined"
   svg:id1="177"
   svg:id2="166"
   svg:companyname="Stillwell Sales Australia"
   svg:companytagline=""
   version="1.1"
   viewBox="64.99999999999999 179.39606436126795 420 111.20787127746414"
   id="svg1771"
   sodipodi:docname="logo.svg"
   inkscape:version="1.2.2 (b0a8486541, 2022-12-01)"
   xmlns:inkscape="http://www.inkscape.org/namespaces/inkscape"
   xmlns:sodipodi="http://sodipodi.sourceforge.net/DTD/sodipodi-0.dtd"
   xmlns="http://www.w3.org/2000/svg"
   xmlns:svg="http://www.w3.org/2000/svg">
  <defs
     id="defs1775" />
  <sodipodi:namedview
     id="namedview1773"
     pagecolor="#ffffff"
     bordercolor="#000000"
     borderopacity="0.25"
     inkscape:showpageshadow="2"
     inkscape:pageopacity="0.0"
     inkscape:pagecheckerboard="0"
     inkscape:deskcolor="#d1d1d1"
     showgrid="false"
     inkscape:zoom="3.3261905"
     inkscape:cx="157.6879"
     inkscape:cy="55.619184"
     inkscape:window-width="1850"
     inkscape:window-height="1008"
     inkscape:window-x="0"
     inkscape:window-y="0"
     inkscape:window-maximized="1"
     inkscape:current-layer="svg1771" />
  <g
     fill="#222223"
     fill-rule="evenodd"
     stroke="none"
     stroke-width="1"
     stroke-linecap="butt"
     stroke-linejoin="miter"
     stroke-miterlimit="10"
     stroke-dasharray=""
     stroke-dashoffset="0"
     font-family="none"
     font-weight="none"
     font-size="none"
     text-anchor="none"
     style="mix-blend-mode:normal;fill:#ffffff"
     id="g1769">
    <g
       data-paper-data="{&quot;isGlobalGroup&quot;:true,&quot;bounds&quot;:{&quot;x&quot;:64.99999999999999,&quot;y&quot;:179.39606436126795,&quot;width&quot;:420,&quot;height&quot;:111.20787127746414}}"
       id="g1767"
       style="fill:#ffffff">
      <g
         data-paper-data="{&quot;isContainerElementsWrapper&quot;:true}"
         id="g1765"
         style="fill:#ffffff">
        <path
           d="M65,278.82482c0,3.25314 1.14999,6.02933 3.44996,8.32857c2.29986,2.30037 5.07605,3.45055 8.32857,3.45055h396.44236c3.25258,0 6.02877,-1.15018 8.32857,-3.45055c2.30037,-2.29924 3.45055,-5.07542 3.45055,-8.32857v-87.64963c0,-3.25314 -1.15018,-6.02933 -3.45055,-8.32857c-2.2998,-2.30037 -5.07599,-3.45055 -8.32857,-3.45055h-396.44236c-3.25258,0 -6.02879,1.15018 -8.32865,3.45055c-2.29991,2.29924 -3.44987,5.07542 -3.44987,8.32857zM76.77852,288.17555c-2.58207,0 -4.78599,-0.91284 -6.61179,-2.73852c-1.82579,-1.82568 -2.73869,-4.02975 -2.73869,-6.61221v-87.64963c0,-2.58246 0.9129,-4.78653 2.73869,-6.61221c1.82585,-1.82568 4.02978,-2.73852 6.61179,-2.73852h396.44236c2.5819,0 4.78597,0.91284 6.61221,2.73852c1.82568,1.82568 2.73852,4.02975 2.73852,6.61221v87.64963c0,2.58246 -0.91284,4.78653 -2.73852,6.61221c-1.82625,1.82568 -4.03032,2.73852 -6.61221,2.73852z"
           data-paper-data="{&quot;isOuterDoubleOutline&quot;:true}"
           style="fill:#ffffff"
           id="path1761" />
        <path
           d="M72.53012,278.82482c0,2.34682 1.90201,4.2484 4.2484,4.2484h396.44236c2.34682,0 4.2484,-1.90158 4.2484,-4.2484v-87.64963c0,-2.34682 -1.90158,-4.2484 -4.2484,-4.2484h-396.44236c-2.34639,0 -4.2484,1.90158 -4.2484,4.2484zM214.81947,230.4712c-1.39433,-0.13255 -2.69604,-0.5251 -3.90598,-1.17851l-1.04596,-0.55654l1.11223,-2.07917l1.04596,0.55654c0.93635,0.49451 1.94237,0.79445 3.01891,0.90066c2.09276,0.20307 3.79212,-0.1198 5.09808,-0.96694c0.6534,-0.48517 1.01112,-1.0502 1.07315,-1.69511c0.05268,-0.52935 -0.19458,-1.09864 -0.74177,-1.70786c-0.8038,-0.75961 -2.29074,-1.37733 -4.46252,-1.854h-0.02634c-2.60399,-0.60894 -4.4359,-1.42973 -5.49573,-2.46237l-0.05268,-0.05353c-0.64462,-0.70637 -1.0638,-1.37733 -1.25753,-2.01289c-0.13255,-0.43249 -0.17249,-0.93975 -0.1198,-1.52263c0.13255,-1.35949 0.82164,-2.49381 2.06642,-3.40297l0.03909,-0.03993c1.77498,-1.16491 3.9901,-1.61949 6.6479,-1.36374c1.31531,0.13255 2.55074,0.49027 3.70716,1.0723l1.05955,0.5302l-1.05955,2.10551l-1.05955,-0.5302c-0.89981,-0.44948 -1.85825,-0.72393 -2.87277,-0.82079c-2.09276,-0.20307 -3.79212,0.11896 -5.09808,0.96694c-0.6534,0.48517 -1.01112,1.0502 -1.07315,1.69511c-0.05268,0.52935 0.19883,1.09864 0.75537,1.70786c0.75027,0.71458 2.19303,1.3238 4.32997,1.82766c2.64845,0.57353 4.52795,1.40282 5.64103,2.48871l0.05268,0.05353c0.64406,0.70608 1.0638,1.37648 1.25753,2.01204c0.13255,0.43334 0.17249,0.9406 0.1198,1.52348c-0.13255,1.36799 -0.81654,2.50656 -2.05283,3.41572l-0.05268,0.02719c-1.44786,0.95334 -3.1999,1.43001 -5.25697,1.43001c-0.45033,0 -0.91341,-0.02209 -1.39093,-0.06628zM242.6669,230.27238h2.35701v-19.0014h-2.35701zM241.36944,211.28372v2.35701h-7.03111v16.63164h-2.35701v-16.63164h-7.03196v-2.35701zM248.66564,211.28372v16.63164h12.26174v2.35701h-14.61875v-18.98866zM264.58186,227.91536v-16.63164h-2.35701v18.98866h14.61875v-2.35701zM300.3602,211.28372l-8.30223,18.98866l-2.18538,-0.03993l-3.985,-10.26244l-4.47612,10.30237l-2.18453,-0.03993l-7.32255,-18.94872h2.48956l5.99789,15.4132l4.29089,-9.83845l-2.15904,-5.57475h2.55584l0.95334,2.47682l1.08589,-2.47682h2.55584l-2.43688,5.58835l3.80062,9.82485l6.76601,-15.4132zM316.29001,213.64073v-2.35701h-14.61875v18.98866h14.61875v-2.35701h-12.26174v-5.95881h12.26174v-2.35701h-12.26174v-5.95881zM319.94448,227.91536h12.26174v2.35701h-14.61875v-18.98866h2.35701zM348.12243,227.91536h-12.26174v-16.63164h-2.35701v18.98866h14.61875zM137.61581,223.76128c1.39178,0.29314 2.21002,0.49112 3.465,0.84628c0.88707,0.25236 0.92105,0.23876 1.37138,-0.43674c1.11138,-1.71211 2.30518,-3.16506 4.01729,-4.87717c1.28897,-1.28897 2.10041,-2.01204 3.28062,-2.89826c1.26857,-0.94824 1.57531,-1.16661 2.23041,-1.56256c0.38151,-0.23196 0.81144,-0.49112 0.94824,-0.58628c0.13595,-0.09516 0.55229,-0.31353 0.91341,-0.49112c0.39595,-0.19118 0.62791,-0.34752 0.58713,-0.38915c-0.33477,-0.32713 -8.25295,-1.56171 -9.79512,-1.52093c-0.31353,0.0068 -0.27954,0.02039 0.25915,0.10961c1.63733,0.26595 3.13787,0.5387 4.46762,0.80465c2.72153,0.54549 3.70376,0.87262 3.10388,1.02981c-0.22517,0.06118 -2.33322,1.22779 -3.02146,1.67812c-0.30079,0.19118 -0.78426,0.50471 -1.07824,0.70269c-2.58473,1.68407 -5.14906,4.02409 -6.97078,6.36326l-0.19118,0.24556l-1.84805,-0.32033c-3.07584,-0.5319 -6.11175,-0.93465 -9.044,-1.1938c-0.73667,-0.06118 -1.69171,-0.15634 -2.11485,-0.19798c-1.7393,-0.17673 -3.10346,-0.23196 -6.50702,-0.27954c-3.12393,-0.04078 -5.01328,-0.0068 -4.91098,0.09601c0.02727,0.03399 0.914,0.10876 3.28758,0.29994c3.04891,0.23876 7.60532,0.75027 8.96906,1.00262c0.33477,0.06118 1.09864,0.18438 1.69171,0.27275c1.45295,0.21837 3.89493,0.6551 4.71997,0.83863c0.36196,0.08242 1.34419,0.29399 2.16923,0.46393zM119.43834,243.28268c0,2.08002 0.02048,3.90173 0.04775,4.06487c0.00858,0.04928 0.01784,0.09516 0.02583,0.1351c0.01003,0.05013 0.01818,0.09007 0.02056,0.11556c-0.00221,0.01784 -0.00416,0.02804 -0.00544,0.02889c0.00595,0 0.00731,-0.0102 0.00544,-0.02889c0.0215,-0.16654 0.08301,-1.02132 0.14462,-2.03753c0.06823,-1.12498 0.15685,-2.40799 0.19781,-2.85068c0.06823,-0.7919 0.38193,-5.55266 0.38193,-5.89338c0,-0.09601 0.17053,-0.42314 0.38202,-0.73667c2.02572,-3.02146 5.34067,-5.29266 10.05376,-6.88921c1.77328,-0.59987 2.34682,-0.75707 4.58403,-1.26178c1.90923,-0.42994 4.14644,-0.81144 6.50685,-1.11138c0.84543,-0.10961 1.62289,-0.21157 1.7325,-0.23196c0.10196,-0.02719 0.96864,-0.13 1.92368,-0.23196c0.95419,-0.10961 2.33917,-0.30079 3.08264,-0.42994c1.53452,-0.26595 5.1839,-1.15981 6.3913,-1.56171c0.45033,-0.15039 1.26178,-0.41634 1.81407,-0.59393c0.54549,-0.18353 1.2074,-0.4087 1.45975,-0.50471c0.25915,-0.10196 0.96864,-0.37471 1.5821,-0.60667c1.16661,-0.44353 3.37663,-1.37138 4.42683,-1.8625c2.10126,-0.96864 5.47704,-2.70793 6.2409,-3.19905c0.42994,-0.27954 2.27884,-1.28217 2.63316,-1.43171c1.41217,-0.60072 2.90591,-1.03066 3.95611,-1.15302c0.75707,-0.08157 0.27954,-0.17079 -0.5387,-0.09516c-0.88707,0.08157 -1.7189,0.25915 -2.61277,0.56589l-0.75027,0.25236l-0.37471,-0.15039c-2.98748,-1.17936 -6.62326,-1.61609 -9.57675,-1.15217c-2.49636,0.3951 -4.43363,1.07739 -6.39809,2.2508c-1.54132,0.9202 -2.43518,1.6025 -3.65533,2.7963c-0.50556,0.49791 -0.85308,0.86582 -0.77151,0.82504c0.08922,-0.04078 0.29399,-0.19713 0.46393,-0.35432c1.50054,-1.35779 4.55004,-3.09709 6.66404,-3.79892c1.10543,-0.36876 2.9263,-0.76471 4.00369,-0.86667c1.14622,-0.10876 3.0563,-0.05438 4.02494,0.11641c0.90661,0.16314 2.93904,0.68824 3.36898,0.87262l0.34752,0.15039l-0.34752,0.15634c-0.19118,0.08922 -0.56589,0.24556 -0.83184,0.35517l-0.48432,0.19798l-0.70948,-0.17758c-1.55492,-0.39595 -2.61956,-0.5251 -4.17448,-0.5251c-1.26857,0 -1.6025,0.02719 -2.50316,0.20477c-2.13525,0.42229 -3.27382,0.84543 -4.89076,1.81407c-0.34072,0.19798 -0.75707,0.49112 -0.927,0.64746c-0.29399,0.26595 -0.2668,0.25236 0.69334,-0.22347l0.0017,-0.00085c0.94824,-0.47072 2.5244,-1.05785 3.54062,-1.31021c1.56851,-0.3883 3.8601,-0.47752 5.44305,-0.20477c1.09099,0.19118 1.69766,0.36876 1.65688,0.49112c-0.01359,0.05523 -0.42229,0.25915 -0.90661,0.45713c-0.48432,0.19798 -0.93465,0.40275 -1.00942,0.44353c-0.1436,0.08837 -3.51343,1.48694 -5.79822,2.41479c-0.57268,0.23876 -2.85068,1.04341 -3.42421,1.22099c-0.96864,0.29994 -4.03768,1.07739 -4.95873,1.26178c-1.54812,0.30673 -4.07167,0.73667 -4.10566,0.70269c-0.08242,-0.08922 0.87942,-1.67132 1.80727,-2.97388c1.07739,-1.50733 2.85832,-3.38343 4.01729,-4.22206c0.26595,-0.19798 0.60072,-0.45033 0.72988,-0.55994c0.48432,-0.4087 2.12165,-1.35014 3.22624,-1.85485c1.2074,-0.55229 2.34682,-0.95504 3.48539,-1.22099c0.38236,-0.08837 0.90746,-0.21157 1.15981,-0.27275c0.75707,-0.17758 2.3808,-0.34157 3.51938,-0.34837c0.58713,-0.0068 1.0638,-0.03399 1.0638,-0.06797c0,-0.19798 -3.44375,-0.22517 -4.94429,-0.04078c-1.1938,0.1436 -1.8557,0.27954 -2.9127,0.58628c-3.36304,0.98223 -6.15933,2.57878 -8.91485,5.09553c-1.70531,1.55492 -3.02826,3.10983 -4.42004,5.21109c-0.32713,0.48432 -0.64151,0.94824 -0.69589,1.02302c-0.08157,0.10876 -0.5387,0.19798 -2.18283,0.44353c-3.58735,0.5319 -6.38365,1.0502 -7.93262,1.47335c-3.10303,0.84543 -4.49481,1.36374 -6.7728,2.50316c-0.80465,0.4019 -1.52093,0.77746 -1.58236,0.83184c-0.06135,0.04758 -0.35466,0.23876 -0.65476,0.42314c-0.55246,0.33392 -0.79802,0.51151 -1.75298,1.22779c-1.67107,1.26178 -3.19896,2.87787 -4.09928,4.35801l-0.27963,0.46393l0.04087,1.54217c0.02048,0.84543 0.04775,3.23983 0.04775,5.31305zM157.62154,237.45048c-0.45713,0.2736 -0.85308,0.53275 -0.87347,0.56674c-0.08837,0.13595 0.1232,0.06118 1.02302,-0.36196c1.7325,-0.81824 3.57461,-1.75969 4.18128,-2.14799c0.15039,-0.09601 0.59393,-0.37556 0.99583,-0.62112c2.81669,-1.74609 4.98592,-3.9969 6.64365,-6.88921c0.59308,-1.04341 1.61609,-3.07584 2.10041,-4.18807c1.43936,-3.30781 3.13107,-5.38782 5.21789,-6.44568c0.51151,-0.25915 1.76734,-0.60667 2.18963,-0.60667c0.42314,0 0.29314,-0.13 -0.18353,-0.18438c-0.81909,-0.09516 -2.27884,0.17079 -3.33585,0.60072c-1.63054,0.66105 -3.69016,2.71473 -5.1907,5.17031c-0.6619,1.09779 -1.09099,1.82087 -1.23459,2.114c-0.07477,0.1436 -0.17758,0.32033 -0.23196,0.38236c-0.05438,0.06118 -0.51151,0.927 -1.02302,1.92283c-0.88622,1.7393 -1.84126,3.32905 -2.35956,3.91533c-0.1368,0.15719 -0.34157,0.41634 -0.46393,0.57948c-0.31438,0.42994 -2.51675,2.61956 -3.19905,3.18545c-1.51413,1.26178 -2.48956,1.95087 -4.25605,3.00787zM136.72195,257.64058c0.05523,0.08837 0.96184,0.29994 1.88969,0.43674c0.40275,0.06118 1.24138,0.08837 2.14204,0.07477c1.41812,-0.01359 1.52093,-0.02719 1.78688,-0.19118c0.57948,-0.35432 1.54132,-1.54132 2.08002,-2.55754c0.1436,-0.27954 0.32118,-0.59393 0.38915,-0.69589c0.06797,-0.10876 0.37471,-0.79785 0.6755,-1.53452c0.44948,-1.11223 0.70184,-1.8489 1.12498,-3.37663c0.04078,-0.14275 0.32713,-0.11556 0.72308,0.06118l0.34752,0.15719l0.53275,-0.59987c0.29314,-0.33477 0.98138,-1.05105 1.52773,-1.58975c3.02146,-2.98748 6.49326,-5.51103 11.32879,-8.25295c1.91008,-1.08419 5.34789,-2.69434 7.71425,-3.62219c0.6755,-0.26595 1.30341,-0.51831 1.38498,-0.55909c0.15719,-0.08157 2.3808,-0.84543 3.84735,-1.32975l0.84543,-0.27954l0.05438,-1.15302c0.08242,-1.78688 0.19798,-2.7963 0.5251,-4.42004c0.36196,-1.84126 0.62112,-2.73512 1.18021,-4.10566c0.49791,-1.22779 1.16661,-2.31283 1.90328,-3.0699c1.48694,-1.53452 3.27382,-2.03923 4.72677,-1.33655c0.90661,0.43674 1.79368,1.52773 2.31878,2.85748c0.15719,0.39595 0.29994,0.70269 0.32033,0.68229c0.06203,-0.05438 -0.29314,-1.5821 -0.49791,-2.14884c-0.5319,-1.47929 -1.83446,-2.70708 -3.16421,-2.98068c-1.48694,-0.30673 -3.08349,0.33477 -4.6452,1.88289c-2.05283,2.03244 -3.36983,4.59762 -4.10651,8.00059c-0.25915,1.2006 -0.55909,3.4514 -0.62027,4.60442l-0.04758,0.96864l-1.09184,0.35432c-1.99165,0.64831 -5.47704,1.96446 -7.78902,2.94669c-0.86667,0.36876 -1.30256,0.55909 -2.73512,1.2006c-1.16661,0.51831 -3.62899,1.7257 -3.9765,1.94407c-0.16399,0.10196 -0.62791,0.35432 -1.02981,0.55909c-2.31963,1.18021 -6.52809,3.85415 -7.5647,4.80154c-0.11556,0.10281 -0.22517,0.17758 -0.24556,0.15719c-0.02039,-0.01359 0.0068,-0.74347 0.04758,-1.60929c0.13,-2.54479 -0.06797,-5.04115 -0.5251,-6.66404c-0.38151,-1.36459 -0.66785,-1.99165 -1.28897,-2.82434c-0.49791,-0.66785 -1.35014,-1.30936 -2.05283,-1.53452c-1.8557,-0.59308 -4.6452,0.08157 -6.11175,1.47335c-1.60929,1.52773 -2.76231,4.24925 -3.39702,7.9734c-0.08157,0.47752 0.05523,0.23876 0.41634,-0.73667c0.34837,-0.94145 1.14622,-2.54394 1.28897,-2.59153c0.09601,-0.03399 0.1368,0.16314 0.30079,1.74609c0.21072,1.97126 0.06118,4.69278 -0.39595,7.42791c-0.10196,0.63386 -0.21157,1.22779 -0.23196,1.30936c-0.01699,0.07052 -0.02549,0.10621 -0.01784,0.10961c0.0085,0.00425 0.03399,-0.02634 0.08582,-0.08922c0.13,-0.15719 0.76386,-2.37316 0.93465,-3.25343c0.49791,-2.61956 0.71628,-5.94776 0.58628,-8.85367l-0.07477,-1.68492l0.18438,-0.23111c0.3883,-0.51236 0.81824,-0.88707 1.10458,-0.96864c0.16399,-0.04843 0.58713,-0.10281 0.94824,-0.1232c0.55229,-0.03399 0.63471,-0.02039 0.51151,0.06118c-0.08157,0.06203 -0.45033,0.30079 -0.81144,0.53955c-0.90066,0.58628 -0.96184,0.66785 -0.90066,1.09779c0.02719,0.19118 0.08922,0.34752 0.1232,0.34752c0.04078,0 0.36111,-0.19033 0.70948,-0.42229c0.99583,-0.6551 1.0706,-0.70269 1.54812,-0.92105c0.41634,-0.19118 0.44353,-0.21837 0.42314,-0.44353c-0.00935,-0.10536 -0.01444,-0.16399 0.01275,-0.19543c0.03399,-0.03909 0.1198,-0.03399 0.31438,-0.02294c0.19118,0.01359 0.75707,0.10281 1.26857,0.20477c1.6025,0.32033 2.17603,0.57948 1.52773,0.69589c-0.49791,0.08157 -1.75289,0.42314 -1.82087,0.49112c-0.07477,0.06797 0,0.68909 0.10196,0.85223c0.05438,0.08922 0.17079,0.07562 0.6687,-0.06797c0.6551,-0.18438 1.75289,-0.35432 1.91008,-0.29314c0.13595,0.04758 0.51831,1.187 0.41549,1.24818c-0.04078,0.02039 -0.3951,0.10876 -0.78426,0.19118c-0.3883,0.08837 -0.97543,0.22517 -1.30256,0.31353c-0.30758,0.08412 -0.47072,0.12235 -0.54719,0.22517c-0.08582,0.11556 -0.06203,0.31183 -0.00935,0.74262l0.01105,0.08922c0.02209,0.17418 0.02039,0.28379 0.07392,0.33562c0.08412,0.08157 0.30164,0.02379 0.95079,-0.14784c0.09771,-0.02549 0.20647,-0.05438 0.32543,-0.08497c0.49791,-0.13 1.0706,-0.25915 1.28217,-0.28719l0.38236,-0.05438l0.08157,0.49791c0.04758,0.27275 0.08922,0.60752 0.08922,0.73667c0,0.22517 -0.01359,0.23876 -0.36196,0.28634c-0.71628,0.09601 -2.33237,0.51831 -2.46917,0.64151c-0.12235,0.10876 -0.13595,0.21837 -0.10876,0.84543c0.02719,0.68909 0.04078,0.71628 0.19713,0.68229c0.08922,-0.02039 0.64831,-0.16399 1.24223,-0.31353c0.59308,-0.15039 1.21334,-0.27275 1.37733,-0.27275h0.29994l-0.04078,0.92785c-0.02039,0.50471 -0.04758,0.9406 -0.06797,0.95419c-0.02039,0.02039 -0.36196,0.08922 -0.76386,0.15719c-0.40275,0.06797 -1.08504,0.23196 -1.51413,0.36111c-0.89386,0.2736 -0.83269,0.19118 -0.91426,1.27622l-0.05438,0.70863l0.37471,-0.11556c0.75707,-0.23196 1.81492,-0.49112 2.2644,-0.5387c0.45033,-0.05438 0.45713,-0.04758 0.45713,0.12915c-0.0068,0.33477 -0.22517,1.63054 -0.28634,1.69171c-0.03399,0.03399 -0.3883,0.13 -0.79105,0.21837c-1.00942,0.21837 -2.2576,0.54549 -2.32558,0.61432c-0.07562,0.07477 -0.38236,1.56851 -0.32798,1.61609c0.02039,0.02719 0.20477,-0.01359 0.40275,-0.08157c0.32713,-0.11641 1.2074,-0.31438 2.21002,-0.51151c0.22517,-0.04163 0.41549,-0.04843 0.45713,-0.0068c0.03399,0.04078 -0.04163,0.4019 -0.18438,0.86582c-0.1368,0.42994 -0.27275,0.88027 -0.30673,0.98223c-0.04843,0.17758 -0.11641,0.20477 -0.55314,0.25236c-1.17256,0.1368 -2.61192,0.38915 -2.67309,0.47072c-0.09601,0.13 -0.48432,1.22779 -0.44353,1.26178c0.01359,0.01359 0.45713,-0.02039 0.98223,-0.08837c1.55492,-0.19798 1.99165,-0.21157 1.98485,-0.06203c-0.0068,0.06882 -0.17079,0.45033 -0.36876,0.85308l-0.36111,0.73667l-1.24818,0.05438c-1.57616,0.06797 -1.71211,0.10281 -1.93047,0.49112c-0.27275,0.49112 -0.26595,0.49791 0.6551,0.50471c1.01622,0.0068 1.65688,0.08157 1.69086,0.19118c0.02124,0.04758 -0.09516,0.23876 -0.23876,0.43674l-0.26595,0.35432l-0.98223,0.05438c-1.30256,0.06882 -1.67047,0.13 -1.69766,0.27954c-0.02039,0.10281 0.10876,0.13 0.80465,0.17079c0.94824,0.05438 1.2006,0.10961 1.15981,0.23196c-0.10281,0.32033 -2.42159,0.45713 -4.1133,0.25236c-1.17341,-0.1436 -1.43936,-0.15719 -1.37818,-0.05438zM126.46376,236.81662c-0.48423,0.71628 -0.45696,0.48432 -0.51151,5.1975c-0.02727,2.20322 -0.01368,3.59415 0.03407,3.49898c0.03416,-0.08157 0.14326,-0.84543 0.23196,-1.69171c0.09508,-0.84543 0.21828,-1.86845 0.27946,-2.2712c0.06118,-0.40275 0.1436,-1.09779 0.18438,-1.54132c0.15039,-1.56936 0.24556,-2.19642 0.36791,-2.3876c0.51915,-0.81824 2.02649,-2.33237 2.89911,-2.9263c0.15719,-0.10196 0.38236,-0.26595 0.49112,-0.35432c0.23876,-0.19118 2.17603,-1.18021 2.7827,-1.41897c2.44198,-0.97543 4.98592,-1.5957 9.43315,-2.30518c1.317,-0.21157 2.80395,-0.45713 3.31545,-0.54549c0.51151,-0.08242 1.25498,-0.21157 1.65688,-0.27275c0.40275,-0.06882 1.42576,-0.25915 2.27205,-0.42314c5.51782,-1.08419 10.08061,-3.06905 14.67143,-6.3845c1.44616,-1.0502 3.92892,-3.18545 3.81931,-3.29421c-0.02719,-0.02039 -0.22517,0.09516 -0.45033,0.26595c-1.7393,1.32295 -4.29683,2.87192 -6.56803,3.9833c-1.18021,0.58628 -1.67132,0.79105 -3.69696,1.56851c-0.55229,0.21157 -1.12583,0.38915 -3.28062,0.98223c-1.05785,0.28634 -2.72153,0.62112 -4.92475,0.96184c-3.12427,0.49112 -3.91533,0.61432 -4.54324,0.69589c-2.2576,0.29994 -6.13809,1.12583 -7.77543,1.65093c-4.93155,1.5821 -8.68968,4.05128 -10.68813,7.01156zM177.00615,234.16306c0.30673,0.90746 0.87262,1.7325 1.52093,2.22361c0.60667,0.46393 0.6687,0.41634 0.25236,-0.19798c-0.75707,-1.12498 -1.2006,-3.48539 -1.08419,-5.76338c0.12915,-2.61192 0.54549,-4.78115 1.24138,-6.51365c0.85903,-2.14204 1.80727,-3.21264 3.1914,-3.595l0.2736,-0.07477l-0.35517,-0.0068c-0.76386,-0.01359 -1.5889,0.35432 -2.33237,1.0638c-1.2006,1.13942 -2.06727,2.77676 -2.62636,4.95194c-0.78426,3.0495 -0.81144,5.77103 -0.08157,7.91222zM181.03023,223.49533c-0.15719,0.54549 -0.15719,0.55229 -0.01359,0.75027c0.08157,0.11641 0.16399,0.20477 0.19798,0.20477c0.02719,0 0.14275,-0.19798 0.25915,-0.42994c0.22517,-0.45713 1.02981,-1.38413 1.27537,-1.45975c0.23876,-0.07477 0.17758,-0.33392 -0.15039,-0.66105c-0.22517,-0.22517 -0.36111,-0.29994 -0.54549,-0.29994c-0.23196,0 -0.25915,0.03399 -0.55229,0.67465c-0.17079,0.36876 -0.38236,0.92105 -0.47072,1.22099zM108.7774,233.19443c-0.01359,0.08922 -0.04767,2.538 -0.07503,5.44985c-0.02727,2.94669 -0.02039,5.29351 0,5.3071c0.06823,0 0.62069,-1.07824 1.13908,-2.21002c0.22508,-0.49791 0.25924,-0.6551 0.30699,-1.53452c0.05455,-0.94145 0.06135,-0.98903 0.28643,-1.24138c0.27971,-0.32118 1.29602,-0.82589 1.98485,-0.98223c1.10501,-0.25236 2.42142,-0.23196 3.78558,0.08157l0.51839,0.11556v4.14049l-0.25236,-0.04758c-0.14326,-0.02039 -0.35474,-0.07477 -0.48432,-0.10961c-0.45016,-0.12915 -3.99018,-0.77066 -4.11296,-0.74347c-0.06814,0.01359 0.31379,0.17079 0.83897,0.34157c1.15956,0.38151 4.98601,1.68492 5.17702,1.75969c0.12958,0.04758 0.13637,-0.1368 0.13637,-3.29421v-3.34944l-0.70931,-0.17079c-1.09133,-0.25915 -2.17586,-0.34752 -3.04891,-0.25236c-1.35057,0.1436 -3.04891,0.83269 -3.6628,1.47335c-0.12278,0.1368 -0.25236,0.23876 -0.29331,0.23876c-0.06814,0 -0.01359,-3.25343 0.06823,-3.90768c0.04095,-0.30079 0.0955,-0.36876 0.82529,-0.97543c1.20051,-1.00262 2.77608,-2.10126 4.09249,-2.85153c0.42289,-0.24556 0.7981,-0.47072 0.84586,-0.50471c0.04087,-0.03399 0.55926,-0.30673 1.15268,-0.61347c0.60021,-0.30758 1.1186,-0.58033 1.15956,-0.61432c0.04087,-0.02719 0.44336,-0.21837 0.88673,-0.42314c0.45016,-0.19713 1.05717,-0.47667 1.35048,-0.62027c0.30011,-0.1436 0.94128,-0.41634 1.42551,-0.61432c0.49112,-0.20392 0.98903,-0.4087 1.11869,-0.46987c0.38873,-0.17758 2.8579,-1.09864 3.96962,-1.48014c0.57268,-0.19798 1.00262,-0.36876 0.95504,-0.38236c-0.21157,-0.06797 -5.54535,1.42576 -6.40481,1.79368c-0.15685,0.06203 -0.73667,0.27954 -1.28914,0.47072c-0.55246,0.19118 -1.47326,0.55229 -2.05308,0.80465c-0.57974,0.24556 -1.07765,0.45033 -1.10492,0.45033c-0.08871,0 -3.28767,1.54897 -3.61505,1.74609c-0.16373,0.10281 -0.63437,0.36876 -1.03678,0.59393c-1.61652,0.89981 -3.82645,2.38675 -3.88109,2.62551zM181.71253,226.21006c-0.02719,0.04758 0.19118,1.0502 0.29994,1.39178c0.02039,0.06118 0.08837,0.08157 0.17079,0.05438c0.16314,-0.06797 1.49374,-0.31353 2.1344,-0.40275l0.46393,-0.06118l-0.02719,-0.3883c-0.03399,-0.50556 -0.21837,-1.29661 -0.36111,-1.58295c-0.15039,-0.29314 -0.37556,-0.29314 -1.03746,-0.0068c-0.46308,0.20477 -1.56851,0.86667 -1.64328,0.99583zM181.70573,230.95722c0.12915,0.20477 1.22099,1.13942 1.67812,1.44616c0.17673,0.11641 0.34072,0.21157 0.36111,0.20477c0.22517,0 0.92105,-2.24401 0.75027,-2.42159c-0.04078,-0.04078 -0.23876,-0.11556 -0.43674,-0.17079c-0.55909,-0.14954 -1.99845,-0.48347 -2.08002,-0.48347c-0.04078,0 -0.1436,0.27954 -0.23196,0.62706c-0.1368,0.55909 -0.1436,0.64831 -0.04078,0.79785zM106.47197,240.1788c0.17741,2.9331 0.36834,5.90018 0.42297,6.58247c0.04767,0.68909 0.1159,1.23459 0.15685,1.21419c0.03407,-0.02039 0.08182,-1.60335 0.1091,-3.51938c0.02727,-1.91688 0.08191,-5.04795 0.12278,-6.95039c0.04095,-1.91008 0.04775,-3.49219 0.01368,-3.52023c-0.03416,-0.02039 -0.92768,-0.16994 -1.98485,-0.32713c-1.05726,-0.15634 -2.05988,-0.31353 -2.23041,-0.35432c-0.17053,-0.03399 -1.60972,-0.25915 -3.19896,-0.49791c-1.58924,-0.23196 -2.98756,-0.44353 -3.10346,-0.46393c-0.46384,-0.08157 -0.1023,0.10196 0.44336,0.22517c0.3205,0.06797 0.57974,0.14954 0.57974,0.17673c0,0.18438 0.24556,1.9993 0.28643,2.09446c0.05463,0.13595 0.15014,-0.60752 0.16373,-1.30936v-0.00085c0.01368,-0.72223 0.01376,-0.72903 0.79802,-0.5319l0.66165,0.16399l0.04775,0.32033c0.05455,0.38915 0.30011,3.62219 0.42289,5.51867c0.0068,0.09516 0.02048,0.09516 0.07503,0.0068c0.04095,-0.06203 0.08871,-0.88707 0.11598,-1.8489c0.06814,-2.40035 0.12278,-3.64173 0.16365,-3.71055c0.05455,-0.08837 1.12549,0.19118 1.18683,0.31438c0.03407,0.06118 0.0955,0.85223 0.15005,1.76649c0.05455,0.91341 0.12278,2.00525 0.16373,2.42754c0.03407,0.42994 0.1091,1.56936 0.15685,2.54479c0.15685,3.11663 0.2046,2.82349 0.34106,-2.03923c0.08182,-3.07669 0.14326,-4.47527 0.18413,-4.50246c0.06143,-0.03399 1.13908,0.21837 1.20731,0.28719c0.05455,0.06118 0.08182,0.42909 0.49791,7.41346c0.13637,2.24401 0.26603,4.1269 0.30011,4.18807c0.05455,0.10281 0.1091,-1.97806 0.2114,-8.05497c0.02736,-1.75289 0.08191,-3.19905 0.11598,-3.21944c0.06823,-0.04078 0.96855,0.14954 1.04358,0.22517c0.02048,0.02719 0.19101,2.44878 0.37513,5.38103zM179.89081,233.5428c0.10281,0.58628 0.34157,1.32295 0.51236,1.5889c0.06797,0.09516 0.17673,0.18438 0.23791,0.17758c0.1436,-0.0068 1.21419,-0.58033 1.28302,-0.69589c0.02719,-0.04078 -0.15719,-0.30673 -0.41634,-0.58628c-0.45033,-0.49112 -0.73667,-0.88707 -1.02302,-1.40537l-0.13,-0.23876l-0.31353,0.15719c-0.25236,0.12915 -0.30673,0.19033 -0.27275,0.32713c0.02039,0.09516 0.07477,0.40275 0.12235,0.6755zM139.32112,238.12597l0.04078,0.44353c0.02039,0.23876 0.06118,0.44353 0.07477,0.43674c0.02039,0 0.19798,-0.13 0.39595,-0.29314c0.45713,-0.37556 1.52773,-1.06465 2.12845,-1.35779c0.23536,-0.11641 0.35857,-0.17588 0.4104,-0.2736c0.05608,-0.10536 0.02974,-0.25405 -0.02464,-0.56589l-0.00425,-0.02634c-0.02719,-0.17079 -0.08157,-0.24556 -0.17079,-0.24556c-0.32033,0.0068 -1.86165,0.9406 -2.41394,1.4657zM139.3823,242.23928l0.51831,-0.41634c0.75707,-0.60667 1.59655,-1.15302 2.27799,-1.48694l0.60752,-0.29314l-0.05438,-0.61432c-0.03484,-0.34072 -0.07562,-0.64066 -0.10961,-0.67465c-0.06797,-0.07562 -1.37053,0.62706 -1.93047,1.04341c-0.23196,0.17758 -0.62027,0.48432 -0.86582,0.69589l-0.44353,0.38151zM214.81947,258.97033c-1.39433,-0.13255 -2.69604,-0.5251 -3.90598,-1.17851l-1.04596,-0.55569l1.11223,-2.07917l1.04596,0.55654c0.93635,0.49366 1.94237,0.79445 3.01891,0.89981c2.09248,0.20336 3.79184,-0.11867 5.09808,-0.96609c0.6534,-0.48602 1.01112,-1.05105 1.07315,-1.69511c0.05268,-0.52935 -0.19458,-1.09949 -0.74177,-1.70786c-0.8038,-0.75961 -2.29074,-1.37733 -4.46252,-1.854h-0.02634c-2.60399,-0.6095 -4.4359,-1.43058 -5.49573,-2.46322l-0.05268,-0.05268c-0.64462,-0.70637 -1.0638,-1.37733 -1.25753,-2.01289c-0.13255,-0.43249 -0.17249,-0.93975 -0.1198,-1.52263c0.13255,-1.35949 0.82164,-2.49381 2.06642,-3.40297l0.03909,-0.03993c1.77498,-1.16491 3.9901,-1.62034 6.6479,-1.36374c1.31531,0.13255 2.55074,0.48942 3.70716,1.0723l1.05955,0.52935l-1.05955,2.10551l-1.05955,-0.52935c-0.89981,-0.45033 -1.85825,-0.72393 -2.87277,-0.82079c-2.09276,-0.20307 -3.79212,0.11896 -5.09808,0.96609c-0.6534,0.48602 -1.01112,1.05105 -1.07315,1.69511c-0.05268,0.52963 0.19911,1.0992 0.75537,1.70871c0.75027,0.71458 2.19303,1.3238 4.32997,1.82681c2.64845,0.57353 4.52795,1.40367 5.64103,2.48956l0.05268,0.05268c0.64406,0.70608 1.0638,1.37733 1.25753,2.01289c0.13255,0.43249 0.17249,0.9406 0.1198,1.52263c-0.13255,1.36884 -0.81654,2.50741 -2.05283,3.41656l-0.05268,0.02634c-1.44786,0.95334 -3.1999,1.43001 -5.25697,1.43001c-0.45033,0 -0.91341,-0.02209 -1.39093,-0.06628zM283.82202,258.97033c-1.39518,-0.13255 -2.69689,-0.5251 -3.90683,-1.17851l-1.04596,-0.55569l1.11223,-2.07917l1.04596,0.55654c0.93635,0.49366 1.94237,0.79445 3.01891,0.89981c2.09276,0.20307 3.79212,-0.11896 5.09808,-0.96609c0.6534,-0.48602 1.01112,-1.05105 1.07315,-1.69511c0.05268,-0.52935 -0.19458,-1.09949 -0.74177,-1.70786c-0.80295,-0.75961 -2.29074,-1.37733 -4.46252,-1.854h-0.02634c-2.60427,-0.60922 -4.43618,-1.43001 -5.49573,-2.46322l-0.05268,-0.05268c-0.64406,-0.70637 -1.06323,-1.37733 -1.25753,-2.01289c-0.13255,-0.43249 -0.17249,-0.93975 -0.1198,-1.52263c0.13255,-1.35949 0.82164,-2.49381 2.06642,-3.40297l0.03909,-0.03993c1.77498,-1.16491 3.9901,-1.62034 6.6479,-1.36374c1.31531,0.13255 2.55074,0.48942 3.70716,1.0723l1.05955,0.52935l-1.05955,2.10551l-1.05955,-0.52935c-0.89981,-0.45033 -1.85825,-0.72393 -2.87277,-0.82079c-2.09276,-0.20307 -3.79212,0.11896 -5.09808,0.96609c-0.6534,0.48602 -1.01112,1.05105 -1.07315,1.69511c-0.05268,0.5302 0.19883,1.09949 0.75537,1.70871c0.75027,0.71458 2.19303,1.3238 4.32997,1.82681c2.64817,0.57382 4.52851,1.40367 5.64103,2.48956l0.05268,0.05268c0.64406,0.70608 1.0638,1.37733 1.25753,2.01289c0.13255,0.43249 0.17249,0.9406 0.1198,1.52263c-0.13255,1.36884 -0.81654,2.50741 -2.05283,3.41656l-0.05268,0.02634c-1.44786,0.95334 -3.1999,1.43001 -5.25697,1.43001c-0.45033,0 -0.91369,-0.02209 -1.39008,-0.06628zM339.93916,257.79183c1.20994,0.6534 2.51166,1.04596 3.90683,1.17851c0.47667,0.04418 0.93975,0.06628 1.39008,0.06628c2.05708,0 3.80912,-0.47667 5.25697,-1.43001l0.05268,-0.02634c1.236,-0.90916 1.92028,-2.04801 2.05283,-3.41656c0.05268,-0.58203 0.01275,-1.09014 -0.1198,-1.52263c-0.19373,-0.63556 -0.61347,-1.30681 -1.25753,-2.01289l-0.05268,-0.05268c-1.11251,-1.08589 -2.99286,-1.91575 -5.64103,-2.48956c-2.13695,-0.50301 -3.5797,-1.11223 -4.32997,-1.82681c-0.55654,-0.60922 -0.80805,-1.17851 -0.75537,-1.70871c0.06203,-0.64406 0.41974,-1.2091 1.07315,-1.69511c1.30596,-0.84713 3.00532,-1.16916 5.09808,-0.96609c1.01452,0.09686 1.97296,0.37046 2.87277,0.82079l1.05955,0.52935l1.05955,-2.10551l-1.05955,-0.52935c-1.15642,-0.58288 -2.39185,-0.93975 -3.70716,-1.0723c-2.6578,-0.2566 -4.87292,0.19883 -6.6479,1.36374l-0.03909,0.03993c-1.24478,0.90916 -1.93387,2.04348 -2.06642,3.40297c-0.05268,0.58288 -0.01275,1.09014 0.1198,1.52263c0.19429,0.63556 0.61347,1.30653 1.25753,2.01289l0.05353,0.05268c1.0587,1.03321 2.89061,1.854 5.49488,2.46322h0.02634c2.17178,0.47667 3.65872,1.09439 4.46252,1.854c0.54719,0.60837 0.79445,1.17851 0.74177,1.70786c-0.06203,0.64406 -0.41974,1.2091 -1.07315,1.69511c-1.30624,0.84741 -3.0056,1.16944 -5.09808,0.96609c-1.07655,-0.10536 -2.08257,-0.40615 -3.01891,-0.89981l-1.04596,-0.55654l-1.11223,2.07917zM244.99757,258.77236l-9.83845,-19.00225h-2.10551l-9.79851,19.00225h2.62126l2.21172,-4.27729h12.03657l2.2508,4.27729zM322.46039,258.77236l-9.83845,-19.00225h-2.10551l-9.79851,19.00225h2.62211l2.21087,-4.27729h12.03657l2.2508,4.27729zM322.8181,256.24286c-1.60675,-1.854 -2.40969,-4.09206 -2.40969,-6.71332v-9.75943h2.35701v9.75943c0,1.96871 0.57353,3.65023 1.7206,5.04455c1.14792,1.40367 2.52525,2.10551 4.132,2.10551c1.61524,0 2.99682,-0.70184 4.14474,-2.10551c1.13857,-1.39433 1.70786,-3.07584 1.70786,-5.04455v-9.75943h2.36976v9.75943c0,2.62126 -0.80295,4.85932 -2.40969,6.71332c-1.60675,1.8625 -3.54402,2.79375 -5.81266,2.79375c-2.26015,0 -4.19317,-0.93125 -5.79992,-2.79375zM401.03543,239.77011l9.8393,19.00225h-2.62211l-2.2508,-4.27729h-12.03657l-2.21172,4.27729h-2.62211l9.79936,-19.00225zM430.36555,258.77236h-2.35701v-19.00225h2.35701zM453.43267,258.77236l-9.83845,-19.00225h-2.10551l-9.79851,19.00225h2.62126l2.21172,-4.27729h12.03657l2.2508,4.27729zM248.55943,239.7837v16.63164h12.26174v2.35701h-14.61875v-18.98866zM276.73738,242.14071v-2.35701h-14.61875v18.98866h14.61875v-2.35701h-12.26174v-5.95881h12.26174v-2.35701h-12.26174v-5.95881zM370.39511,239.7837v2.35701h-7.03111v16.63164h-2.35701v-16.63164h-7.03196v-2.35701zM387.87388,245.11969c0,-1.4742 -0.5251,-2.73172 -1.57616,-3.77343c-1.04171,-1.04171 -2.29499,-1.56256 -3.76069,-1.56256h-10.85807v18.98866h2.35701v-8.31582h7.01836l4.15749,8.31582h2.66205l-4.23736,-8.43563c1.21844,-0.25575 2.22446,-0.86922 3.01891,-1.84041c0.81229,-0.97968 1.21844,-2.10551 1.21844,-3.37663zM426.69833,256.41535h-12.26174v-16.63164h-2.35701v18.98866h14.61875zM121.97574,243.89615c0.05455,0.06203 0.16365,0.1232 0.25915,0.1436c1.02998,0.19798 1.75977,-0.41634 1.98485,-1.64413c0.07503,-0.44948 0.06823,-0.54549 -0.11598,-1.11818c-0.15005,-0.48432 -0.25915,-0.68229 -0.46376,-0.86667c-0.8117,-0.70863 -1.9371,-0.34752 -2.35319,0.75027c-0.08191,0.21837 -0.13646,0.39595 -0.10918,0.39595c0.02048,0 0.12966,-0.10876 0.24556,-0.24556c0.25236,-0.29994 0.64117,-0.47072 0.9208,-0.40275c0.24556,0.05523 0.67533,0.43674 0.83218,0.73667c0.06135,0.11641 0.1091,0.42314 0.1091,0.69589c0,0.40275 -0.04087,0.54549 -0.22508,0.83948c-0.28643,0.44948 -0.50471,0.59987 -0.87984,0.59987c-0.25236,0 -0.27963,0.02039 -0.2046,0.11556zM139.19792,244.50368c-0.02719,0.29994 -0.06797,0.62706 -0.09516,0.72308c-0.02719,0.09516 -0.0068,0.17758 0.03399,0.17758c0.04078,0 0.35517,-0.20477 0.68909,-0.45713c0.84543,-0.62791 1.55492,-1.07824 2.33237,-1.47335c0.36196,-0.18438 0.68229,-0.36876 0.70948,-0.41634c0.07477,-0.09516 0.08242,-1.38498 0.01359,-1.45295c-0.12915,-0.12915 -2.07322,1.0638 -3.04186,1.8693l-0.58628,0.48432zM382.53704,248.09952h-8.50105v-5.95881h8.50105c0.82164,0 1.51838,0.29144 2.09276,0.87347c0.58203,0.58288 0.87347,1.28472 0.87347,2.10551c0,0.82079 -0.29144,1.52263 -0.87347,2.10551c-0.57438,0.58288 -1.27112,0.87432 -2.09276,0.87432zM238.89262,252.13805h-9.57335l4.7939,-9.25557zM316.35628,252.13805h-9.5742l4.7939,-9.25557zM395.19643,252.13805h9.57335l-4.7803,-9.25557zM447.32857,252.13805h-9.5742l4.7939,-9.25557zM138.46124,248.88293c-0.03399,0.11556 -0.04758,0.22432 -0.02719,0.24556c0.02039,0.02039 0.19798,-0.08242 0.39595,-0.22517c0.37471,-0.26595 1.68492,-1.04426 1.76649,-1.04426c0.02039,0 0.20477,-0.10196 0.39595,-0.22517c0.19713,-0.12235 0.62706,-0.34072 0.95419,-0.47667c0.41634,-0.17758 0.60752,-0.30079 0.63471,-0.40955c0.08157,-0.37556 0.18438,-1.54132 0.13,-1.59655c-0.1232,-0.11556 -2.19642,1.03066 -3.25428,1.80812l-0.65425,0.48432l-0.1368,0.61347c-0.07477,0.34157 -0.16994,0.70948 -0.20477,0.82589zM137.6498,251.57642c-0.12235,0.35517 -0.23196,0.68229 -0.25236,0.73667c-0.05438,0.15039 0.08837,0.11641 0.39595,-0.09516c0.15634,-0.10876 0.67465,-0.36876 1.14537,-0.57948c0.47752,-0.21837 1.03746,-0.47072 1.24818,-0.57353c0.21157,-0.10196 0.6619,-0.27954 1.00262,-0.3951c0.34157,-0.11641 0.64151,-0.23196 0.6687,-0.25915c0.06797,-0.06203 0.40275,-1.54897 0.35517,-1.58975c-0.09601,-0.09516 -2.47597,1.02981 -3.84056,1.82171l-0.51151,0.29314zM136.36083,254.43474c-0.10196,0.17758 -0.24556,0.42314 -0.32033,0.5387c-0.09601,0.1368 -0.10961,0.20477 -0.05523,0.20477c0.08922,0 1.04426,-0.36196 2.35361,-0.88707c0.25236,-0.10196 0.90746,-0.30673 1.45975,-0.45628c0.54549,-0.15039 1.01622,-0.29399 1.04341,-0.32798c0.11556,-0.12915 0.45033,-1.17341 0.38915,-1.2074c-0.08242,-0.05438 -1.67132,0.42314 -2.42159,0.72308c-0.29994,0.1232 -0.92785,0.41634 -1.40537,0.6551c-0.75027,0.37471 -0.88622,0.47072 -1.04341,0.75707zM137.69738,255.80527c-0.51151,0.21837 -0.9338,0.40955 -0.9338,0.42314c0,0.04758 0.08157,0.04078 1.00942,-0.14275c0.49112,-0.10961 1.15896,-0.21157 1.48694,-0.24556l0.59987,-0.05523l0.1436,-0.32033c0.13595,-0.30673 0.13595,-0.31353 -0.0068,-0.34072c-0.25915,-0.04078 -1.3306,0.27275 -2.29924,0.68144z"
           data-paper-data="{&quot;isBaseLogoContainer&quot;:true}"
           style="fill:#ffffff"
           id="path1763" />
      </g>
    </g>
  </g>
</svg>
